<svg xmlns="http://www.w3.org/2000/svg" xmlns:xlink="http://www.w3.org/1999/xlink" width="704" zoomAndPan="magnify" viewBox="0 0 528 491.999982" height="656" preserveAspectRatio="xMidYMid meet" version="1.0"><defs><clipPath id="617c942d28"><path d="M 151 81.097656 L 377 81.097656 L 377 397 L 151 397 Z M 151 81.097656 " clip-rule="nonzero"/></clipPath><clipPath id="1d565b3169"><path d="M 200 133 L 325 133 L 325 255 L 200 255 Z M 200 133 " clip-rule="nonzero"/></clipPath><clipPath id="e4bbc383d8"><path d="M 199.601562 82.101562 L 380.328125 122.792969 L 339.640625 303.519531 L 158.914062 262.828125 Z M 199.601562 82.101562 " clip-rule="nonzero"/></clipPath><clipPath id="b2ba9391f4"><path d="M 199.601562 82.101562 L 380.328125 122.792969 L 339.640625 303.519531 L 158.914062 262.828125 Z M 199.601562 82.101562 " clip-rule="nonzero"/></clipPath><clipPath id="807780e428"><path d="M 291 199 L 302 199 L 302 210 L 291 210 Z M 291 199 " clip-rule="nonzero"/></clipPath><clipPath id="c84b213047"><path d="M 199.601562 82.101562 L 380.328125 122.792969 L 339.640625 303.519531 L 158.914062 262.828125 Z M 199.601562 82.101562 " clip-rule="nonzero"/></clipPath><clipPath id="44db094d25"><path d="M 199.601562 82.101562 L 380.328125 122.792969 L 339.640625 303.519531 L 158.914062 262.828125 Z M 199.601562 82.101562 " clip-rule="nonzero"/></clipPath><clipPath id="079eae3d63"><path d="M 297 219 L 307 219 L 307 230 L 297 230 Z M 297 219 " clip-rule="nonzero"/></clipPath><clipPath id="2787566c88"><path d="M 199.601562 82.101562 L 380.328125 122.792969 L 339.640625 303.519531 L 158.914062 262.828125 Z M 199.601562 82.101562 " clip-rule="nonzero"/></clipPath><clipPath id="b473c9bba9"><path d="M 199.601562 82.101562 L 380.328125 122.792969 L 339.640625 303.519531 L 158.914062 262.828125 Z M 199.601562 82.101562 " clip-rule="nonzero"/></clipPath><clipPath id="caccdfb4aa"><path d="M 288 228 L 294 228 L 294 234 L 288 234 Z M 288 228 " clip-rule="nonzero"/></clipPath><clipPath id="611856a880"><path d="M 199.601562 82.101562 L 380.328125 122.792969 L 339.640625 303.519531 L 158.914062 262.828125 Z M 199.601562 82.101562 " clip-rule="nonzero"/></clipPath><clipPath id="8c1db6c860"><path d="M 199.601562 82.101562 L 380.328125 122.792969 L 339.640625 303.519531 L 158.914062 262.828125 Z M 199.601562 82.101562 " clip-rule="nonzero"/></clipPath><clipPath id="5113e29a2c"><path d="M 279 211 L 285 211 L 285 218 L 279 218 Z M 279 211 " clip-rule="nonzero"/></clipPath><clipPath id="a2dfdfa9a6"><path d="M 199.601562 82.101562 L 380.328125 122.792969 L 339.640625 303.519531 L 158.914062 262.828125 Z M 199.601562 82.101562 " clip-rule="nonzero"/></clipPath><clipPath id="5711498bbc"><path d="M 199.601562 82.101562 L 380.328125 122.792969 L 339.640625 303.519531 L 158.914062 262.828125 Z M 199.601562 82.101562 " clip-rule="nonzero"/></clipPath><clipPath id="854120f012"><path d="M 242 154 L 248 154 L 248 160 L 242 160 Z M 242 154 " clip-rule="nonzero"/></clipPath><clipPath id="9932ad6a23"><path d="M 199.601562 82.101562 L 380.328125 122.792969 L 339.640625 303.519531 L 158.914062 262.828125 Z M 199.601562 82.101562 " clip-rule="nonzero"/></clipPath><clipPath id="1dc4cfad09"><path d="M 199.601562 82.101562 L 380.328125 122.792969 L 339.640625 303.519531 L 158.914062 262.828125 Z M 199.601562 82.101562 " clip-rule="nonzero"/></clipPath><clipPath id="9c6eeb54ff"><path d="M 250 145 L 261 145 L 261 156 L 250 156 Z M 250 145 " clip-rule="nonzero"/></clipPath><clipPath id="e2e0a930df"><path d="M 199.601562 82.101562 L 380.328125 122.792969 L 339.640625 303.519531 L 158.914062 262.828125 Z M 199.601562 82.101562 " clip-rule="nonzero"/></clipPath><clipPath id="2eaa78e811"><path d="M 199.601562 82.101562 L 380.328125 122.792969 L 339.640625 303.519531 L 158.914062 262.828125 Z M 199.601562 82.101562 " clip-rule="nonzero"/></clipPath><clipPath id="da025ff7f4"><path d="M 252 169 L 259 169 L 259 176 L 252 176 Z M 252 169 " clip-rule="nonzero"/></clipPath><clipPath id="ba22db8f75"><path d="M 199.601562 82.101562 L 380.328125 122.792969 L 339.640625 303.519531 L 158.914062 262.828125 Z M 199.601562 82.101562 " clip-rule="nonzero"/></clipPath><clipPath id="6eb77f2217"><path d="M 199.601562 82.101562 L 380.328125 122.792969 L 339.640625 303.519531 L 158.914062 262.828125 Z M 199.601562 82.101562 " clip-rule="nonzero"/></clipPath><clipPath id="0a3c7144fc"><path d="M 265 158 L 276 158 L 276 169 L 265 169 Z M 265 158 " clip-rule="nonzero"/></clipPath><clipPath id="af382628ee"><path d="M 199.601562 82.101562 L 380.328125 122.792969 L 339.640625 303.519531 L 158.914062 262.828125 Z M 199.601562 82.101562 " clip-rule="nonzero"/></clipPath><clipPath id="1c53a6ec4b"><path d="M 199.601562 82.101562 L 380.328125 122.792969 L 339.640625 303.519531 L 158.914062 262.828125 Z M 199.601562 82.101562 " clip-rule="nonzero"/></clipPath></defs><path fill="#e75c3a" d="M 348.539062 391.609375 C 348.539062 406.78125 293.238281 410.789062 264 410.789062 C 234.757812 410.789062 179.457031 406.78125 179.457031 391.609375 C 179.457031 379.839844 212.726562 374.789062 241.296875 373.113281 L 244.835938 378.367188 C 230.5 379.050781 217.363281 380.527344 206.695312 382.671875 C 188.847656 386.257812 184.9375 390.339844 184.9375 391.609375 C 184.9375 392.878906 188.847656 396.960938 206.695312 400.550781 C 221.734375 403.570312 241.6875 405.253906 262.980469 405.300781 C 263.320312 405.308594 263.660156 405.308594 264 405.308594 C 264.339844 405.308594 264.679688 405.308594 265.015625 405.300781 C 286.3125 405.253906 306.265625 403.570312 321.300781 400.550781 C 339.148438 396.960938 343.0625 392.878906 343.0625 391.609375 C 343.0625 390.339844 339.148438 386.257812 321.300781 382.671875 C 310.632812 380.527344 297.5 379.050781 283.164062 378.367188 L 286.703125 373.113281 C 315.269531 374.789062 348.539062 379.839844 348.539062 391.609375 " fill-opacity="1" fill-rule="nonzero"/><path fill="#e75c3a" d="M 310.121094 391.609375 C 310.121094 395.601562 305.378906 398.417969 295.210938 400.457031 C 287.449219 402.023438 277.347656 402.925781 266.535156 403.050781 C 265.695312 403.058594 264.84375 403.066406 264 403.066406 C 263.152344 403.066406 262.304688 403.058594 261.460938 403.050781 C 250.648438 402.925781 240.550781 402.023438 232.785156 400.457031 C 222.617188 398.417969 217.878906 395.601562 217.878906 391.609375 C 217.878906 387.613281 222.617188 384.796875 232.785156 382.753906 C 236.8125 381.941406 241.464844 381.316406 246.523438 380.871094 L 250.046875 386.097656 C 244.765625 386.460938 239.851562 387.035156 235.617188 387.800781 C 227.933594 389.171875 224.660156 390.78125 223.632812 391.609375 C 224.660156 392.433594 227.933594 394.042969 235.617188 395.421875 C 241.84375 396.539062 249.527344 397.25 257.71875 397.492188 C 258.925781 397.53125 260.148438 397.554688 261.371094 397.566406 C 262.246094 397.582031 263.121094 397.582031 264 397.582031 C 264.875 397.582031 265.753906 397.582031 266.625 397.566406 C 267.851562 397.554688 269.070312 397.53125 270.277344 397.492188 C 278.46875 397.25 286.152344 396.539062 292.378906 395.421875 C 300.0625 394.042969 303.335938 392.433594 304.363281 391.609375 C 303.335938 390.78125 300.0625 389.171875 292.378906 387.800781 C 288.144531 387.035156 283.234375 386.460938 277.953125 386.097656 L 281.472656 380.871094 C 286.53125 381.316406 291.183594 381.941406 295.210938 382.753906 C 305.378906 384.796875 310.121094 387.613281 310.121094 391.609375 " fill-opacity="1" fill-rule="nonzero"/><g clip-path="url(#617c942d28)"><path fill="#e75c3a" d="M 264 269.359375 C 222.410156 269.359375 188.691406 235.644531 188.691406 194.054688 C 188.691406 152.464844 222.410156 118.75 264 118.75 C 305.589844 118.75 339.304688 152.464844 339.304688 194.054688 C 339.304688 235.644531 305.589844 269.359375 264 269.359375 Z M 334.59375 105.59375 C 325.058594 98.03125 314.21875 91.929688 302.359375 87.726562 C 290.5 83.519531 277.621094 81.203125 264 81.203125 C 236.746094 81.203125 212.480469 90.464844 193.40625 105.59375 C 147.246094 142.203125 137.636719 208.519531 170.554688 257.378906 L 248.269531 372.765625 L 251.855469 378.085938 L 253.414062 380.402344 L 257.011719 385.746094 L 264 396.113281 L 270.988281 385.746094 L 274.582031 380.402344 L 276.140625 378.085938 L 279.726562 372.765625 L 357.449219 257.378906 C 390.359375 208.519531 380.753906 142.203125 334.59375 105.59375 " fill-opacity="1" fill-rule="nonzero"/></g><g clip-path="url(#1d565b3169)"><g clip-path="url(#e4bbc383d8)"><g clip-path="url(#b2ba9391f4)"><path fill="#e75c3a" d="M 323.527344 158.863281 C 323.527344 158.863281 323.519531 158.855469 323.519531 158.855469 C 319.710938 155.171875 315.398438 152.175781 298.421875 160.742188 C 293.058594 163.449219 286.496094 167.285156 279.476562 171.707031 C 279.476562 171.707031 279.472656 171.703125 279.472656 171.703125 C 279.472656 171.703125 259.292969 152.941406 259.292969 152.941406 C 259.292969 152.941406 238.03125 133.175781 238.03125 133.175781 C 235.734375 134.675781 233.4375 136.175781 231.140625 137.679688 C 241.425781 152.867188 251.710938 168.054688 261.992188 183.246094 C 261.992188 183.246094 261.996094 183.25 261.996094 183.25 C 249.519531 191.832031 237.417969 200.855469 229.363281 207.605469 C 228.277344 208.511719 227.273438 209.375 226.335938 210.199219 C 226.335938 210.199219 226.335938 210.195312 226.335938 210.195312 C 226.335938 210.195312 216.535156 201.476562 216.535156 201.476562 C 216.535156 201.476562 204.789062 191.03125 204.789062 191.03125 C 203.441406 191.910156 202.09375 192.789062 200.746094 193.664062 C 206.4375 202.019531 212.125 210.375 217.816406 218.726562 C 217.816406 218.726562 217.816406 218.730469 217.816406 218.730469 C 215.601562 222.441406 215.335938 223.832031 215.816406 226.925781 C 218.5 228.816406 219.476562 229.121094 224.136719 228.714844 C 224.136719 228.714844 224.136719 228.71875 224.136719 228.71875 C 229.246094 237.441406 234.355469 246.160156 239.464844 254.882812 C 240.835938 254.042969 242.207031 253.199219 243.578125 252.359375 C 243.578125 252.359375 239.171875 237.269531 239.171875 237.269531 C 239.171875 237.269531 235.496094 224.679688 235.496094 224.679688 C 235.496094 224.679688 235.492188 224.675781 235.492188 224.675781 C 236.636719 224.183594 237.847656 223.644531 239.132812 223.054688 C 248.683594 218.667969 262.023438 211.601562 275.125 204.007812 C 284.441406 219.8125 293.757812 235.613281 303.074219 251.414062 C 305.417969 249.980469 307.757812 248.550781 310.097656 247.117188 C 310.097656 247.117188 301.351562 219.4375 301.351562 219.4375 C 301.351562 219.4375 293.046875 193.164062 293.046875 193.164062 C 293.046875 193.164062 293.042969 193.160156 293.042969 193.160156 C 300.046875 188.710938 306.324219 184.429688 311.070312 180.738281 C 326.078125 169.078125 325.230469 163.898438 323.535156 158.878906 C 323.535156 158.871094 323.53125 158.867188 323.527344 158.863281 " fill-opacity="1" fill-rule="nonzero"/></g></g></g><g clip-path="url(#807780e428)"><g clip-path="url(#c84b213047)"><g clip-path="url(#44db094d25)"><path fill="#e75c3a" d="M 299.5 208.484375 C 301.179688 207.421875 302.191406 206.003906 301.757812 205.316406 C 301.757812 205.316406 298.59375 200.316406 298.59375 200.316406 C 298.160156 199.628906 296.445312 199.933594 294.765625 200.996094 C 294.765625 200.996094 294.335938 201.269531 294.335938 201.269531 C 292.65625 202.332031 291.648438 203.75 292.082031 204.433594 C 292.082031 204.433594 295.246094 209.4375 295.246094 209.4375 C 295.679688 210.121094 297.394531 209.816406 299.074219 208.753906 C 299.074219 208.753906 299.5 208.484375 299.5 208.484375 " fill-opacity="1" fill-rule="nonzero"/></g></g></g><g clip-path="url(#079eae3d63)"><g clip-path="url(#2787566c88)"><g clip-path="url(#b473c9bba9)"><path fill="#e75c3a" d="M 304.585938 227.898438 C 306.265625 226.835938 307.277344 225.417969 306.84375 224.730469 C 306.84375 224.730469 303.679688 219.730469 303.679688 219.730469 C 303.246094 219.042969 301.53125 219.347656 299.851562 220.410156 C 299.851562 220.410156 299.421875 220.679688 299.421875 220.679688 C 297.742188 221.742188 296.734375 223.160156 297.167969 223.847656 C 297.167969 223.847656 300.328125 228.847656 300.328125 228.847656 C 300.765625 229.535156 302.476562 229.230469 304.15625 228.167969 C 304.15625 228.167969 304.585938 227.898438 304.585938 227.898438 " fill-opacity="1" fill-rule="nonzero"/></g></g></g><g clip-path="url(#caccdfb4aa)"><g clip-path="url(#611856a880)"><g clip-path="url(#8c1db6c860)"><path fill="#e75c3a" d="M 292.488281 232.976562 C 291.632812 233.515625 290.761719 233.671875 290.539062 233.324219 C 290.539062 233.324219 288.929688 230.773438 288.929688 230.773438 C 288.707031 230.425781 289.222656 229.703125 290.078125 229.164062 C 290.078125 229.164062 290.296875 229.023438 290.296875 229.023438 C 291.152344 228.484375 292.023438 228.328125 292.246094 228.675781 C 292.246094 228.675781 293.855469 231.226562 293.855469 231.226562 C 294.078125 231.574219 293.5625 232.296875 292.707031 232.835938 C 292.707031 232.835938 292.488281 232.976562 292.488281 232.976562 " fill-opacity="1" fill-rule="nonzero"/></g></g></g><g clip-path="url(#5113e29a2c)"><g clip-path="url(#a2dfdfa9a6)"><g clip-path="url(#5711498bbc)"><path fill="#e75c3a" d="M 283.238281 216.449219 C 282.300781 217.042969 281.347656 217.214844 281.105469 216.832031 C 281.105469 216.832031 279.339844 214.042969 279.339844 214.042969 C 279.097656 213.660156 279.660156 212.867188 280.597656 212.277344 C 280.597656 212.277344 280.835938 212.125 280.835938 212.125 C 281.773438 211.53125 282.730469 211.363281 282.972656 211.746094 C 282.972656 211.746094 284.738281 214.535156 284.738281 214.535156 C 284.976562 214.917969 284.414062 215.707031 283.476562 216.300781 C 283.476562 216.300781 283.238281 216.449219 283.238281 216.449219 " fill-opacity="1" fill-rule="nonzero"/></g></g></g><g clip-path="url(#854120f012)"><g clip-path="url(#9932ad6a23)"><g clip-path="url(#1dc4cfad09)"><path fill="#e75c3a" d="M 243.265625 155.144531 C 242.40625 155.683594 241.894531 156.40625 242.113281 156.757812 C 242.113281 156.757812 243.726562 159.304688 243.726562 159.304688 C 243.945312 159.652344 244.820312 159.5 245.675781 158.957031 C 245.675781 158.957031 245.894531 158.820312 245.894531 158.820312 C 246.75 158.277344 247.265625 157.554688 247.042969 157.207031 C 247.042969 157.207031 245.433594 154.660156 245.433594 154.660156 C 245.210938 154.308594 244.335938 154.464844 243.480469 155.007812 C 243.480469 155.007812 243.265625 155.144531 243.265625 155.144531 " fill-opacity="1" fill-rule="nonzero"/></g></g></g><g clip-path="url(#9c6eeb54ff)"><g clip-path="url(#e2e0a930df)"><g clip-path="url(#2eaa78e811)"><path fill="#e75c3a" d="M 253.035156 146.390625 C 254.714844 145.328125 256.429688 145.023438 256.863281 145.710938 C 256.863281 145.710938 260.027344 150.710938 260.027344 150.710938 C 260.460938 151.398438 259.453125 152.816406 257.773438 153.878906 C 257.773438 153.878906 257.34375 154.148438 257.34375 154.148438 C 255.664062 155.210938 253.949219 155.515625 253.515625 154.832031 C 253.515625 154.832031 250.351562 149.828125 250.351562 149.828125 C 249.917969 149.144531 250.929688 147.726562 252.609375 146.664062 C 252.609375 146.664062 253.035156 146.390625 253.035156 146.390625 " fill-opacity="1" fill-rule="nonzero"/></g></g></g><g clip-path="url(#da025ff7f4)"><g clip-path="url(#ba22db8f75)"><g clip-path="url(#6eb77f2217)"><path fill="#e75c3a" d="M 254.171875 170.492188 C 253.234375 171.085938 252.671875 171.875 252.914062 172.257812 C 252.914062 172.257812 254.679688 175.046875 254.679688 175.046875 C 254.921875 175.429688 255.875 175.261719 256.8125 174.667969 C 256.8125 174.667969 257.050781 174.515625 257.050781 174.515625 C 257.988281 173.925781 258.550781 173.132812 258.308594 172.75 C 258.308594 172.75 256.546875 169.960938 256.546875 169.960938 C 256.304688 169.578125 255.347656 169.75 254.410156 170.34375 C 254.410156 170.34375 254.171875 170.492188 254.171875 170.492188 " fill-opacity="1" fill-rule="nonzero"/></g></g></g><g clip-path="url(#0a3c7144fc)"><g clip-path="url(#af382628ee)"><g clip-path="url(#1c53a6ec4b)"><path fill="#e75c3a" d="M 268.339844 159.214844 C 270.019531 158.152344 271.734375 157.847656 272.167969 158.535156 C 272.167969 158.535156 275.332031 163.535156 275.332031 163.535156 C 275.765625 164.222656 274.753906 165.640625 273.074219 166.703125 C 273.074219 166.703125 272.648438 166.972656 272.648438 166.972656 C 270.964844 168.035156 269.253906 168.339844 268.820312 167.652344 C 268.820312 167.652344 265.65625 162.652344 265.65625 162.652344 C 265.222656 161.964844 266.230469 160.546875 267.910156 159.484375 C 267.910156 159.484375 268.339844 159.214844 268.339844 159.214844 " fill-opacity="1" fill-rule="nonzero"/></g></g></g></svg>